<?xml version="1.0" encoding="UTF-8" standalone="no"?>
<!DOCTYPE svg PUBLIC "-//W3C//DTD SVG 1.1//EN"
 "http://www.w3.org/Graphics/SVG/1.1/DTD/svg11.dtd">
<!-- Generated by graphviz version 2.38.0 (20140413.2041)
 -->
<!-- Title: G Pages: 1 -->
<svg width="339pt" height="1280pt"
 viewBox="0.00 0.00 339.00 1280.00" xmlns="http://www.w3.org/2000/svg" xmlns:xlink="http://www.w3.org/1999/xlink">
<g id="graph0" class="graph" transform="scale(1 1) rotate(0) translate(4 1276)">
<title>G</title>
<polygon fill="white" stroke="none" points="-4,4 -4,-1276 335,-1276 335,4 -4,4"/>
<g id="clust1" class="cluster"><title>cluster_Global</title>
<path fill="none" stroke="gray" d="M20,-8C20,-8 311,-8 311,-8 317,-8 323,-14 323,-20 323,-20 323,-1252 323,-1252 323,-1258 317,-1264 311,-1264 311,-1264 20,-1264 20,-1264 14,-1264 8,-1258 8,-1252 8,-1252 8,-20 8,-20 8,-14 14,-8 20,-8"/>
<text text-anchor="middle" x="165.5" y="-1251.2" font-family="Times,serif" font-size="11.00" fill="gray">Global</text>
</g>
<g id="clust2" class="cluster"><title>cluster_\app</title>
<path fill="none" stroke="gray" d="M28,-16C28,-16 303,-16 303,-16 309,-16 315,-22 315,-28 315,-28 315,-1224 315,-1224 315,-1230 309,-1236 303,-1236 303,-1236 28,-1236 28,-1236 22,-1236 16,-1230 16,-1224 16,-1224 16,-28 16,-28 16,-22 22,-16 28,-16"/>
<text text-anchor="middle" x="165.5" y="-1223.2" font-family="Times,serif" font-size="11.00" fill="gray">app</text>
</g>
<g id="clust3" class="cluster"><title>cluster_\app\interfaz</title>
<path fill="none" stroke="gray" d="M36,-150C36,-150 98,-150 98,-150 104,-150 110,-156 110,-162 110,-162 110,-246 110,-246 110,-252 104,-258 98,-258 98,-258 36,-258 36,-258 30,-258 24,-252 24,-246 24,-246 24,-162 24,-162 24,-156 30,-150 36,-150"/>
<text text-anchor="middle" x="67" y="-245.2" font-family="Times,serif" font-size="11.00" fill="gray">interfaz</text>
</g>
<g id="clust4" class="cluster"><title>cluster_\app\interfaz\Rest</title>
<path fill="none" stroke="gray" d="M44,-158C44,-158 90,-158 90,-158 96,-158 102,-164 102,-170 102,-170 102,-218 102,-218 102,-224 96,-230 90,-230 90,-230 44,-230 44,-230 38,-230 32,-224 32,-218 32,-218 32,-170 32,-170 32,-164 38,-158 44,-158"/>
<text text-anchor="middle" x="67" y="-217.2" font-family="Times,serif" font-size="11.00" fill="gray">Rest</text>
</g>
<g id="clust5" class="cluster"><title>cluster_\app\modelos</title>
<path fill="none" stroke="gray" d="M162,-620C162,-620 295,-620 295,-620 301,-620 307,-626 307,-632 307,-632 307,-1196 307,-1196 307,-1202 301,-1208 295,-1208 295,-1208 162,-1208 162,-1208 156,-1208 150,-1202 150,-1196 150,-1196 150,-632 150,-632 150,-626 156,-620 162,-620"/>
<text text-anchor="middle" x="228.5" y="-1195.2" font-family="Times,serif" font-size="11.00" fill="gray">modelos</text>
</g>
<g id="clust6" class="cluster"><title>cluster_\app\modelos\rolesModelo</title>
<path fill="none" stroke="gray" d="M187,-1108C187,-1108 270,-1108 270,-1108 276,-1108 282,-1114 282,-1120 282,-1120 282,-1168 282,-1168 282,-1174 276,-1180 270,-1180 270,-1180 187,-1180 187,-1180 181,-1180 175,-1174 175,-1168 175,-1168 175,-1120 175,-1120 175,-1114 181,-1108 187,-1108"/>
<text text-anchor="middle" x="228.5" y="-1167.2" font-family="Times,serif" font-size="11.00" fill="gray">rolesModelo</text>
</g>
<g id="clust7" class="cluster"><title>cluster_\app\modelos\categoriasModelo</title>
<path fill="none" stroke="gray" d="M170,-1028C170,-1028 287,-1028 287,-1028 293,-1028 299,-1034 299,-1040 299,-1040 299,-1088 299,-1088 299,-1094 293,-1100 287,-1100 287,-1100 170,-1100 170,-1100 164,-1100 158,-1094 158,-1088 158,-1088 158,-1040 158,-1040 158,-1034 164,-1028 170,-1028"/>
<text text-anchor="middle" x="228.5" y="-1087.2" font-family="Times,serif" font-size="11.00" fill="gray">categoriasModelo</text>
</g>
<g id="clust8" class="cluster"><title>cluster_\app\modelos\usuariosModelo</title>
<path fill="none" stroke="gray" d="M177,-948C177,-948 280,-948 280,-948 286,-948 292,-954 292,-960 292,-960 292,-1008 292,-1008 292,-1014 286,-1020 280,-1020 280,-1020 177,-1020 177,-1020 171,-1020 165,-1014 165,-1008 165,-1008 165,-960 165,-960 165,-954 171,-948 177,-948"/>
<text text-anchor="middle" x="228.5" y="-1007.2" font-family="Times,serif" font-size="11.00" fill="gray">usuariosModelo</text>
</g>
<g id="clust9" class="cluster"><title>cluster_\app\modelos\busquedaModelo</title>
<path fill="none" stroke="gray" d="M177,-868C177,-868 280,-868 280,-868 286,-868 292,-874 292,-880 292,-880 292,-928 292,-928 292,-934 286,-940 280,-940 280,-940 177,-940 177,-940 171,-940 165,-934 165,-928 165,-928 165,-880 165,-880 165,-874 171,-868 177,-868"/>
<text text-anchor="middle" x="228.5" y="-927.2" font-family="Times,serif" font-size="11.00" fill="gray">busquedaModelo</text>
</g>
<g id="clust10" class="cluster"><title>cluster_\app\modelos\logsModelo</title>
<path fill="none" stroke="gray" d="M190.5,-788C190.5,-788 266.5,-788 266.5,-788 272.5,-788 278.5,-794 278.5,-800 278.5,-800 278.5,-848 278.5,-848 278.5,-854 272.5,-860 266.5,-860 266.5,-860 190.5,-860 190.5,-860 184.5,-860 178.5,-854 178.5,-848 178.5,-848 178.5,-800 178.5,-800 178.5,-794 184.5,-788 190.5,-788"/>
<text text-anchor="middle" x="228.5" y="-847.2" font-family="Times,serif" font-size="11.00" fill="gray">logsModelo</text>
</g>
<g id="clust11" class="cluster"><title>cluster_\app\modelos\archivosModelo</title>
<path fill="none" stroke="gray" d="M177,-708C177,-708 280,-708 280,-708 286,-708 292,-714 292,-720 292,-720 292,-768 292,-768 292,-774 286,-780 280,-780 280,-780 177,-780 177,-780 171,-780 165,-774 165,-768 165,-768 165,-720 165,-720 165,-714 171,-708 177,-708"/>
<text text-anchor="middle" x="228.5" y="-767.2" font-family="Times,serif" font-size="11.00" fill="gray">archivosModelo</text>
</g>
<g id="clust12" class="cluster"><title>cluster_\app\modelos\envioEmailModelo</title>
<path fill="none" stroke="gray" d="M170,-628C170,-628 287,-628 287,-628 293,-628 299,-634 299,-640 299,-640 299,-688 299,-688 299,-694 293,-700 287,-700 287,-700 170,-700 170,-700 164,-700 158,-694 158,-688 158,-688 158,-640 158,-640 158,-634 164,-628 170,-628"/>
<text text-anchor="middle" x="228.5" y="-687.2" font-family="Times,serif" font-size="11.00" fill="gray">envioEmailModelo</text>
</g>
<g id="clust13" class="cluster"><title>cluster_\app\Api</title>
<path fill="none" stroke="gray" d="M44,-312C44,-312 90,-312 90,-312 96,-312 102,-318 102,-324 102,-324 102,-372 102,-372 102,-378 96,-384 90,-384 90,-384 44,-384 44,-384 38,-384 32,-378 32,-372 32,-372 32,-324 32,-324 32,-318 38,-312 44,-312"/>
<text text-anchor="middle" x="67" y="-371.2" font-family="Times,serif" font-size="11.00" fill="gray">Api</text>
</g>
<g id="clust14" class="cluster"><title>cluster_\app\controladores</title>
<path fill="none" stroke="gray" d="M182.5,-24C182.5,-24 274.5,-24 274.5,-24 280.5,-24 286.5,-30 286.5,-36 286.5,-36 286.5,-600 286.5,-600 286.5,-606 280.5,-612 274.5,-612 274.5,-612 182.5,-612 182.5,-612 176.5,-612 170.5,-606 170.5,-600 170.5,-600 170.5,-36 170.5,-36 170.5,-30 176.5,-24 182.5,-24"/>
<text text-anchor="middle" x="228.5" y="-599.2" font-family="Times,serif" font-size="11.00" fill="gray">controladores</text>
</g>
<g id="clust15" class="cluster"><title>cluster_\app\controladores\usuarios</title>
<path fill="none" stroke="gray" d="M197,-512C197,-512 260,-512 260,-512 266,-512 272,-518 272,-524 272,-524 272,-572 272,-572 272,-578 266,-584 260,-584 260,-584 197,-584 197,-584 191,-584 185,-578 185,-572 185,-572 185,-524 185,-524 185,-518 191,-512 197,-512"/>
<text text-anchor="middle" x="228.5" y="-571.2" font-family="Times,serif" font-size="11.00" fill="gray">usuarios</text>
</g>
<g id="clust16" class="cluster"><title>cluster_\app\controladores\archivos</title>
<path fill="none" stroke="gray" d="M197,-432C197,-432 260,-432 260,-432 266,-432 272,-438 272,-444 272,-444 272,-492 272,-492 272,-498 266,-504 260,-504 260,-504 197,-504 197,-504 191,-504 185,-498 185,-492 185,-492 185,-444 185,-444 185,-438 191,-432 197,-432"/>
<text text-anchor="middle" x="228.5" y="-491.2" font-family="Times,serif" font-size="11.00" fill="gray">archivos</text>
</g>
<g id="clust17" class="cluster"><title>cluster_\app\controladores\home</title>
<path fill="none" stroke="gray" d="M205.5,-352C205.5,-352 251.5,-352 251.5,-352 257.5,-352 263.5,-358 263.5,-364 263.5,-364 263.5,-412 263.5,-412 263.5,-418 257.5,-424 251.5,-424 251.5,-424 205.5,-424 205.5,-424 199.5,-424 193.5,-418 193.5,-412 193.5,-412 193.5,-364 193.5,-364 193.5,-358 199.5,-352 205.5,-352"/>
<text text-anchor="middle" x="228.5" y="-411.2" font-family="Times,serif" font-size="11.00" fill="gray">home</text>
</g>
<g id="clust18" class="cluster"><title>cluster_\app\controladores\busqueda</title>
<path fill="none" stroke="gray" d="M197,-272C197,-272 260,-272 260,-272 266,-272 272,-278 272,-284 272,-284 272,-332 272,-332 272,-338 266,-344 260,-344 260,-344 197,-344 197,-344 191,-344 185,-338 185,-332 185,-332 185,-284 185,-284 185,-278 191,-272 197,-272"/>
<text text-anchor="middle" x="228.5" y="-331.2" font-family="Times,serif" font-size="11.00" fill="gray">busqueda</text>
</g>
<g id="clust19" class="cluster"><title>cluster_\app\controladores\logs</title>
<path fill="none" stroke="gray" d="M205.5,-192C205.5,-192 251.5,-192 251.5,-192 257.5,-192 263.5,-198 263.5,-204 263.5,-204 263.5,-252 263.5,-252 263.5,-258 257.5,-264 251.5,-264 251.5,-264 205.5,-264 205.5,-264 199.5,-264 193.5,-258 193.5,-252 193.5,-252 193.5,-204 193.5,-204 193.5,-198 199.5,-192 205.5,-192"/>
<text text-anchor="middle" x="228.5" y="-251.2" font-family="Times,serif" font-size="11.00" fill="gray">logs</text>
</g>
<g id="clust20" class="cluster"><title>cluster_\app\controladores\roles</title>
<path fill="none" stroke="gray" d="M205.5,-112C205.5,-112 251.5,-112 251.5,-112 257.5,-112 263.5,-118 263.5,-124 263.5,-124 263.5,-172 263.5,-172 263.5,-178 257.5,-184 251.5,-184 251.5,-184 205.5,-184 205.5,-184 199.5,-184 193.5,-178 193.5,-172 193.5,-172 193.5,-124 193.5,-124 193.5,-118 199.5,-112 205.5,-112"/>
<text text-anchor="middle" x="228.5" y="-171.2" font-family="Times,serif" font-size="11.00" fill="gray">roles</text>
</g>
<g id="clust21" class="cluster"><title>cluster_\app\controladores\categorias</title>
<path fill="none" stroke="gray" d="M190.5,-32C190.5,-32 266.5,-32 266.5,-32 272.5,-32 278.5,-38 278.5,-44 278.5,-44 278.5,-92 278.5,-92 278.5,-98 272.5,-104 266.5,-104 266.5,-104 190.5,-104 190.5,-104 184.5,-104 178.5,-98 178.5,-92 178.5,-92 178.5,-44 178.5,-44 178.5,-38 184.5,-32 190.5,-32"/>
<text text-anchor="middle" x="228.5" y="-91.2" font-family="Times,serif" font-size="11.00" fill="gray">categorias</text>
</g>
<!-- \\app\\interfaz\\Rest\\Rest -->
<g id="node1" class="node"><title>\\app\\interfaz\\Rest\\Rest</title>
<polygon fill="none" stroke="black" points="94,-202 40,-202 40,-166 94,-166 94,-202"/>
<text text-anchor="middle" x="67" y="-181.2" font-family="Courier,monospace" font-size="11.00">Rest</text>
</g>
<!-- \\app\\modelos\\rolesModelo\\rolesModelo -->
<g id="node2" class="node"><title>\\app\\modelos\\rolesModelo\\rolesModelo</title>
<polygon fill="none" stroke="black" points="274,-1152 183,-1152 183,-1116 274,-1116 274,-1152"/>
<text text-anchor="middle" x="228.5" y="-1131.2" font-family="Courier,monospace" font-size="11.00">rolesModelo</text>
</g>
<!-- \\app\\modelos\\categoriasModelo\\categoriasModelo -->
<g id="node3" class="node"><title>\\app\\modelos\\categoriasModelo\\categoriasModelo</title>
<polygon fill="none" stroke="black" points="291,-1072 166,-1072 166,-1036 291,-1036 291,-1072"/>
<text text-anchor="middle" x="228.5" y="-1051.2" font-family="Courier,monospace" font-size="11.00">categoriasModelo</text>
</g>
<!-- \\app\\modelos\\usuariosModelo\\usuariosModelo -->
<g id="node4" class="node"><title>\\app\\modelos\\usuariosModelo\\usuariosModelo</title>
<polygon fill="none" stroke="black" points="284,-992 173,-992 173,-956 284,-956 284,-992"/>
<text text-anchor="middle" x="228.5" y="-971.2" font-family="Courier,monospace" font-size="11.00">usuariosModelo</text>
</g>
<!-- \\app\\modelos\\busquedaModelo\\busquedaModelo -->
<g id="node5" class="node"><title>\\app\\modelos\\busquedaModelo\\busquedaModelo</title>
<polygon fill="none" stroke="black" points="284,-912 173,-912 173,-876 284,-876 284,-912"/>
<text text-anchor="middle" x="228.5" y="-891.2" font-family="Courier,monospace" font-size="11.00">busquedaModelo</text>
</g>
<!-- \\app\\modelos\\logsModelo\\logsModelo -->
<g id="node6" class="node"><title>\\app\\modelos\\logsModelo\\logsModelo</title>
<polygon fill="none" stroke="black" points="270.5,-832 186.5,-832 186.5,-796 270.5,-796 270.5,-832"/>
<text text-anchor="middle" x="228.5" y="-811.2" font-family="Courier,monospace" font-size="11.00">logsModelo</text>
</g>
<!-- \\app\\modelos\\archivosModelo\\archivosModelo -->
<g id="node7" class="node"><title>\\app\\modelos\\archivosModelo\\archivosModelo</title>
<polygon fill="none" stroke="black" points="284,-752 173,-752 173,-716 284,-716 284,-752"/>
<text text-anchor="middle" x="228.5" y="-731.2" font-family="Courier,monospace" font-size="11.00">archivosModelo</text>
</g>
<!-- \\app\\modelos\\envioEmailModelo\\envioEmailModelo -->
<g id="node8" class="node"><title>\\app\\modelos\\envioEmailModelo\\envioEmailModelo</title>
<polygon fill="none" stroke="black" points="291,-672 166,-672 166,-636 291,-636 291,-672"/>
<text text-anchor="middle" x="228.5" y="-651.2" font-family="Courier,monospace" font-size="11.00">envioEmailModelo</text>
</g>
<!-- \\app\\Api\\Api -->
<g id="node9" class="node"><title>\\app\\Api\\Api</title>
<polygon fill="none" stroke="black" points="94,-356 40,-356 40,-320 94,-320 94,-356"/>
<text text-anchor="middle" x="67" y="-335.2" font-family="Courier,monospace" font-size="11.00">Api</text>
</g>
<!-- \\app\\controladores\\usuarios\\usuarios -->
<g id="node10" class="node"><title>\\app\\controladores\\usuarios\\usuarios</title>
<polygon fill="none" stroke="black" points="264,-556 193,-556 193,-520 264,-520 264,-556"/>
<text text-anchor="middle" x="228.5" y="-535.2" font-family="Courier,monospace" font-size="11.00">usuarios</text>
</g>
<!-- \\app\\controladores\\usuarios\\usuarios&#45;&gt;\\app\\interfaz\\Rest\\Rest -->
<g id="edge2" class="edge"><title>\\app\\controladores\\usuarios\\usuarios&#45;&gt;\\app\\interfaz\\Rest\\Rest</title>
<path fill="none" stroke="black" stroke-dasharray="1,5" d="M192.984,-532.387C177.697,-528.167 160.774,-520.807 150,-508 91.6417,-438.634 133.478,-395.556 110,-308 100.997,-274.427 87.7623,-236.714 78.5644,-211.789"/>
<polygon fill="none" stroke="black" points="81.7851,-210.408 75.0142,-202.259 75.2255,-212.852 81.7851,-210.408"/>
</g>
<!-- \\app\\controladores\\usuarios\\usuarios&#45;&gt;\\app\\Api\\Api -->
<g id="edge1" class="edge"><title>\\app\\controladores\\usuarios\\usuarios&#45;&gt;\\app\\Api\\Api</title>
<path fill="none" stroke="black" d="M192.794,-530.605C178.193,-526.072 161.875,-518.96 150,-508 107.52,-468.793 84.6472,-402.893 74.5311,-365.707"/>
<polygon fill="none" stroke="black" points="77.9174,-364.822 72.0104,-356.026 71.1432,-366.586 77.9174,-364.822"/>
</g>
<!-- \\app\\controladores\\archivos\\archivos -->
<g id="node11" class="node"><title>\\app\\controladores\\archivos\\archivos</title>
<polygon fill="none" stroke="black" points="264,-476 193,-476 193,-440 264,-440 264,-476"/>
<text text-anchor="middle" x="228.5" y="-455.2" font-family="Courier,monospace" font-size="11.00">archivos</text>
</g>
<!-- \\app\\controladores\\archivos\\archivos&#45;&gt;\\app\\interfaz\\Rest\\Rest -->
<g id="edge4" class="edge"><title>\\app\\controladores\\archivos\\archivos&#45;&gt;\\app\\interfaz\\Rest\\Rest</title>
<path fill="none" stroke="black" stroke-dasharray="1,5" d="M192.895,-451.536C177.96,-447.155 161.35,-439.904 150,-428 111.205,-387.313 127.907,-361.29 110,-308 98.8648,-274.861 85.9489,-236.782 77.4116,-211.661"/>
<polygon fill="none" stroke="black" points="80.6809,-210.403 74.1483,-202.062 74.0535,-212.657 80.6809,-210.403"/>
</g>
<!-- \\app\\controladores\\archivos\\archivos&#45;&gt;\\app\\Api\\Api -->
<g id="edge3" class="edge"><title>\\app\\controladores\\archivos\\archivos&#45;&gt;\\app\\Api\\Api</title>
<path fill="none" stroke="black" d="M192.631,-448.343C178.657,-443.521 162.855,-436.806 150,-428 124.67,-410.649 101.686,-384.014 86.5402,-364.216"/>
<polygon fill="none" stroke="black" points="89.336,-362.11 80.545,-356.197 83.7296,-366.302 89.336,-362.11"/>
</g>
<!-- \\app\\controladores\\home\\home -->
<g id="node12" class="node"><title>\\app\\controladores\\home\\home</title>
<polygon fill="none" stroke="black" points="255.5,-396 201.5,-396 201.5,-360 255.5,-360 255.5,-396"/>
<text text-anchor="middle" x="228.5" y="-375.2" font-family="Courier,monospace" font-size="11.00">home</text>
</g>
<!-- \\app\\controladores\\home\\home&#45;&gt;\\app\\Api\\Api -->
<g id="edge5" class="edge"><title>\\app\\controladores\\home\\home&#45;&gt;\\app\\Api\\Api</title>
<path fill="none" stroke="black" d="M201.162,-371.395C174.647,-364.745 133.553,-354.44 104.03,-347.036"/>
<polygon fill="none" stroke="black" points="104.663,-343.586 94.1122,-344.549 102.96,-350.376 104.663,-343.586"/>
</g>
<!-- \\app\\controladores\\busqueda\\busqueda -->
<g id="node13" class="node"><title>\\app\\controladores\\busqueda\\busqueda</title>
<polygon fill="none" stroke="black" points="264,-316 193,-316 193,-280 264,-280 264,-316"/>
<text text-anchor="middle" x="228.5" y="-295.2" font-family="Courier,monospace" font-size="11.00">busqueda</text>
</g>
<!-- \\app\\controladores\\busqueda\\busqueda&#45;&gt;\\app\\Api\\Api -->
<g id="edge6" class="edge"><title>\\app\\controladores\\busqueda\\busqueda&#45;&gt;\\app\\Api\\Api</title>
<path fill="none" stroke="black" d="M192.891,-306.679C166.684,-313.252 130.781,-322.256 104.194,-328.923"/>
<polygon fill="none" stroke="black" points="102.991,-325.616 94.1429,-331.444 104.694,-332.406 102.991,-325.616"/>
</g>
<!-- \\app\\controladores\\logs\\logs -->
<g id="node14" class="node"><title>\\app\\controladores\\logs\\logs</title>
<polygon fill="none" stroke="black" points="255.5,-236 201.5,-236 201.5,-200 255.5,-200 255.5,-236"/>
<text text-anchor="middle" x="228.5" y="-215.2" font-family="Courier,monospace" font-size="11.00">logs</text>
</g>
<!-- \\app\\controladores\\roles\\roles -->
<g id="node15" class="node"><title>\\app\\controladores\\roles\\roles</title>
<polygon fill="none" stroke="black" points="255.5,-156 201.5,-156 201.5,-120 255.5,-120 255.5,-156"/>
<text text-anchor="middle" x="228.5" y="-135.2" font-family="Courier,monospace" font-size="11.00">roles</text>
</g>
<!-- \\app\\controladores\\roles\\roles&#45;&gt;\\app\\interfaz\\Rest\\Rest -->
<g id="edge8" class="edge"><title>\\app\\controladores\\roles\\roles&#45;&gt;\\app\\interfaz\\Rest\\Rest</title>
<path fill="none" stroke="black" stroke-dasharray="1,5" d="M201.162,-145.596C174.647,-153.243 133.553,-165.094 104.03,-173.609"/>
<polygon fill="none" stroke="black" points="102.751,-170.335 94.1122,-176.469 104.691,-177.061 102.751,-170.335"/>
</g>
<!-- \\app\\controladores\\roles\\roles&#45;&gt;\\app\\Api\\Api -->
<g id="edge7" class="edge"><title>\\app\\controladores\\roles\\roles&#45;&gt;\\app\\Api\\Api</title>
<path fill="none" stroke="black" d="M201.427,-150.538C185.16,-159.324 164.61,-172.287 150,-188 116.081,-224.479 91.3916,-277.599 78.409,-309.861"/>
<polygon fill="none" stroke="black" points="75,-308.968 74.6084,-319.556 81.517,-311.523 75,-308.968"/>
</g>
<!-- \\app\\controladores\\categorias\\categorias -->
<g id="node16" class="node"><title>\\app\\controladores\\categorias\\categorias</title>
<polygon fill="none" stroke="black" points="270.5,-76 186.5,-76 186.5,-40 270.5,-40 270.5,-76"/>
<text text-anchor="middle" x="228.5" y="-55.2" font-family="Courier,monospace" font-size="11.00">categorias</text>
</g>
<!-- \\app\\controladores\\categorias\\categorias&#45;&gt;\\app\\interfaz\\Rest\\Rest -->
<g id="edge10" class="edge"><title>\\app\\controladores\\categorias\\categorias&#45;&gt;\\app\\interfaz\\Rest\\Rest</title>
<path fill="none" stroke="black" stroke-dasharray="1,5" d="M196.855,-76.0532C182.257,-85.0796 164.797,-96.5108 150,-108 129.841,-123.652 108.759,-143.274 93.0192,-158.66"/>
<polygon fill="none" stroke="black" points="90.4071,-156.32 85.7492,-165.836 95.3247,-161.302 90.4071,-156.32"/>
</g>
<!-- \\app\\controladores\\categorias\\categorias&#45;&gt;\\app\\Api\\Api -->
<g id="edge9" class="edge"><title>\\app\\controladores\\categorias\\categorias&#45;&gt;\\app\\Api\\Api</title>
<path fill="none" stroke="black" d="M188.274,-76.19C174.517,-84.2436 160.015,-94.8968 150,-108 114.321,-154.68 129.904,-178.72 110,-234 100.59,-260.136 88.6248,-289.438 79.8748,-310.262"/>
<polygon fill="none" stroke="black" points="76.5329,-309.179 75.8629,-319.753 82.9804,-311.905 76.5329,-309.179"/>
</g>
</g>
</svg>
